<svg width="375" height="812" viewBox="0 0 375 812" fill="none" xmlns="http://www.w3.org/2000/svg">
<g clip-path="url(#clip0)">
<rect width="375" height="812" fill="#8F65B9"/>
<rect width="375" height="812" fill="#FCFBFF"/>
<rect opacity="0.35" x="336.5" y="17.8333" width="21" height="10.3333" rx="2.16667" stroke="black"/>
<path opacity="0.4" d="M359 21V25C359.808 24.6612 360.333 23.8731 360.333 23C360.333 22.1269 359.808 21.3388 359 21Z" fill="black"/>
<rect x="338" y="19.3333" width="18" height="7.33333" rx="1.33333" fill="black"/>
<path fill-rule="evenodd" clip-rule="evenodd" d="M323.334 19.5739C325.558 19.574 327.698 20.4117 329.31 21.9138C329.432 22.0298 329.626 22.0283 329.746 21.9105L330.906 20.7627C330.967 20.703 331 20.622 331 20.5378C330.999 20.4536 330.965 20.3731 330.903 20.3141C326.672 16.3397 319.995 16.3397 315.763 20.3141C315.702 20.3731 315.667 20.4536 315.667 20.5378C315.666 20.622 315.7 20.7029 315.76 20.7627L316.921 21.9105C317.041 22.0285 317.235 22.03 317.356 21.9138C318.969 20.4116 321.109 19.5739 323.334 19.5739ZM323.332 23.2994C324.556 23.2994 325.736 23.756 326.643 24.5805C326.766 24.6975 326.959 24.695 327.079 24.5748L328.239 23.3976C328.3 23.3359 328.334 23.2521 328.333 23.1651C328.332 23.0781 328.297 22.995 328.234 22.9345C325.472 20.3551 321.194 20.3551 318.432 22.9345C318.37 22.995 318.334 23.0781 318.333 23.1652C318.332 23.2522 318.367 23.336 318.428 23.3976L319.588 24.5748C319.708 24.695 319.901 24.6975 320.024 24.5805C320.93 23.7565 322.109 23.2999 323.332 23.2994ZM325.667 26.023C325.668 26.1085 325.634 26.1909 325.572 26.2507L323.557 28.2419C323.498 28.3004 323.417 28.3333 323.333 28.3333C323.249 28.3333 323.169 28.3004 323.11 28.2419L321.095 26.2507C321.032 26.1908 320.998 26.1084 321 26.023C321.002 25.9375 321.04 25.8566 321.104 25.7993C322.391 24.7335 324.276 24.7335 325.562 25.7993C325.627 25.8566 325.665 25.9376 325.667 26.023Z" fill="black"/>
<path fill-rule="evenodd" clip-rule="evenodd" d="M310.667 18.6667C310.667 18.1144 310.219 17.6667 309.667 17.6667H308.667C308.114 17.6667 307.667 18.1144 307.667 18.6667V27.3334C307.667 27.8856 308.114 28.3334 308.667 28.3334H309.667C310.219 28.3334 310.667 27.8856 310.667 27.3334V18.6667ZM304 20H305C305.552 20 306 20.4477 306 21V27.3334C306 27.8856 305.552 28.3334 305 28.3334H304C303.448 28.3334 303 27.8856 303 27.3334V21C303 20.4477 303.448 20 304 20ZM300.333 22.3334H299.333C298.781 22.3334 298.333 22.7811 298.333 23.3334V27.3334C298.333 27.8856 298.781 28.3334 299.333 28.3334H300.333C300.886 28.3334 301.333 27.8856 301.333 27.3334V23.3334C301.333 22.7811 300.886 22.3334 300.333 22.3334ZM296.667 25.3334C296.667 24.7811 296.219 24.3334 295.667 24.3334H294.667C294.114 24.3334 293.667 24.7811 293.667 25.3334V27.3334C293.667 27.8856 294.114 28.3334 294.667 28.3334H295.667C296.219 28.3334 296.667 27.8856 296.667 27.3334V25.3334Z" fill="black"/>
<path d="M36.9974 28.2563C39.6854 28.2563 41.2821 26.1543 41.2821 22.5947C41.2821 21.2544 41.0258 20.1265 40.535 19.2549C39.8246 17.8999 38.6014 17.1675 37.056 17.1675C34.7562 17.1675 33.1302 18.7129 33.1302 20.8809C33.1302 22.917 34.5951 24.3965 36.6093 24.3965C37.847 24.3965 38.8505 23.8179 39.3485 22.8145H39.3705C39.3705 22.8145 39.3998 22.8145 39.4071 22.8145C39.4218 22.8145 39.473 22.8145 39.473 22.8145C39.473 25.2314 38.5575 26.6743 37.0121 26.6743C36.1039 26.6743 35.4008 26.1763 35.1591 25.3779H33.2767C33.5917 27.1138 35.0638 28.2563 36.9974 28.2563ZM37.0634 22.895C35.8475 22.895 34.9833 22.0308 34.9833 20.8223C34.9833 19.6431 35.8915 18.7422 37.0707 18.7422C38.2499 18.7422 39.1581 19.6577 39.1581 20.8516C39.1581 22.0308 38.2719 22.895 37.0634 22.895ZM44.2666 26.8794C44.9624 26.8794 45.4385 26.3813 45.4385 25.7222C45.4385 25.0557 44.9624 24.5649 44.2666 24.5649C43.5782 24.5649 43.0948 25.0557 43.0948 25.7222C43.0948 26.3813 43.5782 26.8794 44.2666 26.8794ZM44.2666 21.3862C44.9624 21.3862 45.4385 20.8955 45.4385 20.2363C45.4385 19.5698 44.9624 19.0791 44.2666 19.0791C43.5782 19.0791 43.0948 19.5698 43.0948 20.2363C43.0948 20.8955 43.5782 21.3862 44.2666 21.3862ZM47.4636 20.522V20.5513H49.236V20.522C49.236 19.4453 49.9831 18.7202 51.0891 18.7202C52.1291 18.7202 52.8908 19.394 52.8908 20.3242C52.8908 21.0713 52.5319 21.6206 51.0891 23.0854L47.5661 26.689V28H54.905V26.396H50.1589V26.2715L52.3708 24.0522C54.1652 22.2798 54.7439 21.3423 54.7439 20.207C54.7439 18.4419 53.2351 17.1675 51.1477 17.1675C48.9797 17.1675 47.4636 18.5444 47.4636 20.522ZM57.1425 28H59.12L63.639 19.0425V17.4312H56.2855V19.0205H61.7347V19.1377L57.1425 28Z" fill="black"/>
<path d="M0 44H375V815H0V44Z" fill="#260868"/>
<path fill-rule="evenodd" clip-rule="evenodd" d="M304.714 358.778C298.619 358.778 293.753 353.81 292.964 347.765C288.039 310.002 258.128 280.091 220.364 275.165C214.32 274.377 209.352 269.511 209.352 263.415C209.352 257.32 214.308 252.318 220.372 252.942C270.334 258.083 310.047 297.795 315.188 347.758C315.812 353.822 310.81 358.778 304.714 358.778Z" fill="#FFC700"/>
<path fill-rule="evenodd" clip-rule="evenodd" d="M87.3893 358.778C93.485 358.778 98.3508 353.81 99.1392 347.765C104.065 310.002 133.976 280.091 171.739 275.165C177.784 274.377 182.752 269.511 182.752 263.415C182.752 257.32 177.796 252.318 171.732 252.942C121.769 258.083 82.0568 297.795 76.9157 347.758C76.2918 353.822 81.2935 358.778 87.3893 358.778Z" fill="#FFC700"/>
<rect opacity="0.4" x="167.324" y="217" width="53.1999" height="26.6" rx="13.3" fill="#EABD20"/>
<rect opacity="0.4" x="64.3822" y="363.034" width="262.808" height="26.6" rx="13.3" fill="#FFC700"/>
<path d="M77.9023 422.534C78.8833 421.273 79.4234 419.912 79.4919 418.529C79.5603 417.147 79.1558 415.77 78.3013 414.478C77.4469 413.186 76.1593 412.004 74.512 410.998C72.8647 409.993 70.89 409.184 68.7007 408.619C66.5114 408.054 64.1502 407.742 61.7522 407.703C59.3541 407.663 56.966 407.896 54.7243 408.389C52.4825 408.881 50.431 409.624 48.6869 410.573C46.9428 411.523 45.5402 412.661 44.5593 413.923L61.2308 418.229L77.9023 422.534Z" fill="#FFC700"/>
<path d="M77.6949 422.802C78.4034 421.89 78.6737 420.876 78.4904 419.818C78.3072 418.759 77.6739 417.677 76.6267 416.633C75.5796 415.588 74.1392 414.603 72.3876 413.731C70.636 412.86 68.6077 412.121 66.4183 411.555C64.229 410.99 61.9216 410.61 59.6278 410.436C57.334 410.262 55.0987 410.299 53.0497 410.543C51.0006 410.788 49.1779 411.236 47.6855 411.862C46.1931 412.487 45.0604 413.279 44.3519 414.19L61.0234 418.496L77.6949 422.802Z" fill="#260868"/>
<path d="M34.2062 464.612C34.2062 468.598 34.9936 472.074 36.5685 475.041C38.1433 478.007 40.2175 480.476 42.791 482.447C45.4029 484.417 48.3606 485.9 51.6639 486.897C55.0056 487.871 58.4241 488.358 61.9195 488.358C64.4162 488.358 66.8745 488.092 69.2944 487.561C71.7526 487.03 74.1341 486.233 76.4387 485.17C78.7434 484.107 80.952 482.779 83.0646 481.185C85.2156 479.59 87.2129 477.72 89.0566 475.572L89.6904 474.874L92.0527 475.904L91.4189 476.601C89.3063 479.059 86.9633 481.218 84.3898 483.078C81.8546 484.937 79.1467 486.498 76.2659 487.76C73.3851 489 70.3891 489.941 67.2778 490.583C64.205 491.225 61.0553 491.546 57.8288 491.546C55.0632 491.546 52.3169 491.314 49.5897 490.849C46.9009 490.406 44.3274 489.731 41.8692 488.823C39.4493 487.893 37.1831 486.731 35.0705 485.336C32.9963 483.941 31.191 482.314 29.6546 480.454C28.1181 478.572 26.9082 476.458 26.0248 474.111C25.1797 471.742 24.7572 469.14 24.7572 466.306C24.7572 462.564 25.295 459.177 26.3704 456.144C27.4844 453.088 28.9632 450.376 30.8069 448.007C32.689 445.616 34.8592 443.546 37.3175 441.796C39.8142 440.047 42.4261 438.608 45.1533 437.479C47.8804 436.328 50.6652 435.475 53.5076 434.922C56.35 434.368 59.0771 434.092 61.6891 434.092C65.1076 434.092 68.2573 434.435 71.1381 435.121C74.0189 435.785 76.4964 436.737 78.5705 437.977C80.6447 439.195 82.258 440.689 83.4103 442.461C84.601 444.21 85.1964 446.158 85.1964 448.306C85.1964 450.365 84.6394 452.302 83.5255 454.118C82.45 455.933 80.9904 457.527 79.1467 458.9C77.3414 460.251 75.248 461.324 72.8666 462.121C70.5235 462.919 68.0652 463.317 65.4917 463.317C63.7632 463.317 62.15 463.14 60.652 462.786C59.1539 462.431 57.848 461.933 56.7341 461.291C55.6202 460.649 54.7367 459.863 54.0837 458.933C53.4308 458.003 53.1043 456.974 53.1043 455.845C53.1043 454.76 53.3923 453.719 53.9685 452.723C54.5447 451.704 55.2745 450.774 56.1579 449.933C57.0414 449.07 58.0016 448.317 59.0387 447.675C60.1142 447.011 61.1513 446.49 62.15 446.114L63.7056 447.011C62.899 447.542 62.1308 448.118 61.401 448.738C60.7096 449.335 60.095 449.988 59.5573 450.697C59.0195 451.383 58.597 452.125 58.2897 452.922C57.9824 453.719 57.8288 454.583 57.8288 455.513C57.8288 456.465 58.0208 457.317 58.4049 458.07C58.8275 458.823 59.3844 459.465 60.0758 459.996C60.8056 460.527 61.6314 460.937 62.5533 461.225C63.4751 461.49 64.4546 461.623 65.4917 461.623C66.9129 461.623 68.3341 461.324 69.7553 460.727C71.1765 460.107 72.444 459.21 73.5579 458.037C74.6719 456.841 75.5745 455.38 76.2659 453.653C76.9573 451.926 77.303 449.933 77.303 447.675C77.303 445.638 76.8997 443.878 76.0931 442.394C75.3248 440.889 74.2493 439.649 72.8666 438.675C71.4838 437.7 69.8513 436.981 67.9692 436.516C66.0871 436.029 64.0705 435.785 61.9195 435.785C60.3831 435.785 58.6354 435.985 56.6765 436.383C54.7175 436.759 52.701 437.39 50.6268 438.276C48.591 439.162 46.5937 440.335 44.6347 441.796C42.6758 443.236 40.9089 445.029 39.334 447.177C37.7976 449.302 36.5493 451.804 35.589 454.682C34.6672 457.561 34.2062 460.871 34.2062 464.612Z" fill="#FAFBFF"/>
<path d="M124.606 481.616C124.606 482.878 124.798 483.941 125.182 484.804C125.566 485.668 126.238 486.1 127.198 486.1C127.775 486.1 128.389 485.945 129.042 485.635C129.734 485.303 130.521 484.771 131.404 484.041C132.288 483.31 133.287 482.369 134.4 481.218C135.553 480.044 136.859 478.616 138.318 476.934L140.047 474.874L142.409 475.904L140.681 477.963C139.067 479.823 137.55 481.494 136.129 482.978C134.746 484.439 133.421 485.679 132.153 486.698C130.886 487.716 129.638 488.502 128.408 489.055C127.218 489.587 126.027 489.853 124.836 489.853C123.569 489.853 122.493 489.653 121.61 489.255C120.765 488.856 120.054 488.314 119.478 487.627C118.902 486.919 118.46 486.111 118.153 485.203C117.845 484.273 117.634 483.288 117.519 482.247C116.597 483.31 115.579 484.306 114.465 485.236C113.351 486.144 112.18 486.941 110.951 487.627C109.76 488.314 108.512 488.856 107.206 489.255C105.9 489.653 104.594 489.853 103.288 489.853C101.367 489.853 99.5043 489.62 97.699 489.155C95.8937 488.69 94.2805 487.982 92.8593 487.03C91.4765 486.078 90.3626 484.882 89.5176 483.443C88.6725 481.982 88.25 480.266 88.25 478.295C88.25 475.993 88.7686 473.889 89.8057 471.985C90.8427 470.059 92.2447 468.409 94.0116 467.037C95.7785 465.642 97.8143 464.568 100.119 463.815C102.424 463.04 104.843 462.653 107.379 462.653C108.915 462.653 110.336 462.852 111.642 463.251C112.948 463.649 114.081 464.136 115.041 464.712C116.04 465.265 116.866 465.863 117.519 466.505C118.172 467.125 118.614 467.657 118.844 468.099L119.536 464.878C119.612 464.457 119.958 464.103 120.573 463.815C121.226 463.527 121.936 463.306 122.704 463.151C123.473 462.974 124.222 462.852 124.951 462.786C125.681 462.697 126.2 462.653 126.507 462.653C126.968 462.653 127.275 462.697 127.429 462.786C127.583 462.874 127.659 463.051 127.659 463.317C127.659 463.649 127.487 464.324 127.141 465.343C126.834 466.339 126.488 467.623 126.104 469.195C125.758 470.745 125.412 472.572 125.067 474.675C124.759 476.779 124.606 479.092 124.606 481.616ZM118.268 472.849C118.268 471.83 117.999 470.834 117.461 469.86C116.924 468.863 116.194 467.989 115.272 467.236C114.35 466.461 113.275 465.841 112.045 465.376C110.855 464.911 109.587 464.679 108.243 464.679C106.591 464.679 105.035 464.955 103.576 465.509C102.155 466.04 100.906 466.804 99.8308 467.801C98.7938 468.775 97.9679 469.959 97.3533 471.354C96.7388 472.727 96.4315 474.243 96.4315 475.904C96.4315 479.225 97.3341 481.76 99.1395 483.509C100.945 485.236 103.345 486.1 106.341 486.1C107.647 486.1 108.992 485.801 110.375 485.203C111.796 484.583 113.083 483.709 114.235 482.579C115.426 481.428 116.386 480.033 117.116 478.395C117.884 476.756 118.268 474.908 118.268 472.849Z" fill="#FAFBFF"/>
<path d="M139.816 478.959C139.816 476.612 139.97 474.255 140.277 471.885C140.585 469.516 140.988 467.114 141.487 464.679H136.244L136.878 462.653H141.948C142.486 460.395 143.024 458.136 143.561 455.878C144.138 453.597 144.656 451.317 145.117 449.036H150.994C150.917 449.524 150.802 450.232 150.648 451.162C150.533 452.07 150.379 453.132 150.187 454.35C150.034 455.546 149.88 456.863 149.726 458.302C149.573 459.719 149.419 461.169 149.265 462.653H160.443L159.867 464.679H149.035C148.881 465.941 148.747 467.181 148.632 468.398C148.516 469.616 148.401 470.778 148.286 471.885C148.209 472.97 148.151 473.978 148.113 474.908C148.075 475.815 148.055 476.601 148.055 477.266C148.055 478.948 148.132 480.354 148.286 481.483C148.478 482.613 148.747 483.52 149.093 484.207C149.477 484.893 149.938 485.38 150.475 485.668C151.051 485.956 151.704 486.1 152.434 486.1C153.395 486.1 154.451 485.823 155.603 485.269C156.794 484.694 158.023 483.93 159.291 482.978C160.558 482.026 161.845 480.919 163.151 479.657C164.457 478.373 165.724 477.011 166.953 475.572L167.53 474.874L169.892 475.904L169.316 476.601C167.549 478.66 165.782 480.509 164.015 482.148C162.287 483.786 160.577 485.181 158.887 486.332C157.197 487.461 155.546 488.336 153.932 488.956C152.319 489.554 150.763 489.853 149.265 489.853C147.767 489.853 146.423 489.653 145.232 489.255C144.08 488.856 143.1 488.225 142.294 487.362C141.487 486.476 140.873 485.347 140.45 483.974C140.028 482.602 139.816 480.93 139.816 478.959Z" fill="#FAFBFF"/>
<path d="M184.584 486.1C185.928 486.1 187.292 485.9 188.675 485.502C190.096 485.103 191.517 484.483 192.938 483.642C194.398 482.801 195.896 481.716 197.432 480.387C198.969 479.037 200.544 477.432 202.157 475.572L202.733 474.874L205.095 475.904L204.519 476.601C202.445 478.97 200.371 480.996 198.297 482.679C196.261 484.362 194.244 485.734 192.247 486.797C190.288 487.86 188.348 488.635 186.428 489.122C184.507 489.609 182.663 489.853 180.897 489.853C178.4 489.853 176.172 489.554 174.213 488.956C172.254 488.358 170.602 487.55 169.258 486.531C167.914 485.491 166.896 484.295 166.204 482.945C165.475 481.572 165.11 480.133 165.11 478.627C165.11 476.236 165.686 474.066 166.838 472.118C167.952 470.147 169.45 468.465 171.332 467.07C173.253 465.675 175.423 464.59 177.843 463.815C180.263 463.04 182.779 462.653 185.391 462.653C188.041 462.653 190.057 463.04 191.44 463.815C192.861 464.59 193.572 465.564 193.572 466.738C193.572 467.867 193.015 468.93 191.901 469.926C190.787 470.9 189.27 471.863 187.35 472.815C185.467 473.745 183.278 474.675 180.781 475.605C178.285 476.513 175.653 477.454 172.888 478.428C173.157 479.579 173.618 480.631 174.271 481.583C174.924 482.513 175.75 483.321 176.748 484.007C177.747 484.672 178.899 485.192 180.205 485.568C181.511 485.923 182.971 486.1 184.584 486.1ZM186.37 467.734C186.37 466.849 185.948 466.151 185.103 465.642C184.296 465.133 183.297 464.878 182.106 464.878C181.108 464.878 180.051 465.088 178.938 465.509C177.824 465.908 176.806 466.561 175.884 467.468C174.962 468.354 174.194 469.494 173.579 470.889C172.965 472.284 172.657 473.978 172.657 475.97V476.734C173.963 476.336 175.404 475.815 176.979 475.173C178.592 474.509 180.09 473.778 181.473 472.981C182.855 472.184 184.008 471.343 184.93 470.457C185.89 469.55 186.37 468.642 186.37 467.734Z" fill="#FAFBFF"/>
<path d="M202.157 475.572L202.733 474.874C203.309 474.21 203.828 473.524 204.289 472.815C204.788 472.107 205.21 471.443 205.556 470.823C205.902 470.181 206.171 469.616 206.363 469.129C206.555 468.62 206.689 468.232 206.766 467.967C205.767 467.9 204.807 467.756 203.885 467.535C202.963 467.313 202.157 467.015 201.465 466.638C200.774 466.262 200.236 465.819 199.852 465.31C199.43 464.801 199.218 464.225 199.218 463.583C199.218 463.074 199.372 462.62 199.679 462.221C199.987 461.823 200.409 461.49 200.947 461.225C201.446 460.959 202.022 460.76 202.675 460.627C203.29 460.472 203.943 460.395 204.634 460.395C205.556 460.395 206.363 460.505 207.054 460.727C207.746 460.948 208.322 461.247 208.783 461.623C209.244 461.978 209.589 462.398 209.82 462.885C210.05 463.35 210.165 463.837 210.165 464.347C211.241 464.347 212.393 464.258 213.622 464.081C214.89 463.904 216.158 463.716 217.425 463.516C218.693 463.295 219.941 463.096 221.17 462.919C222.399 462.741 223.532 462.653 224.569 462.653C225.453 462.653 226.163 462.764 226.701 462.985C227.239 463.184 227.508 463.527 227.508 464.015C227.508 464.369 227.316 464.955 226.932 465.775C226.586 466.594 226.144 467.546 225.607 468.631C225.069 469.716 224.473 470.9 223.82 472.184C223.206 473.446 222.63 474.731 222.092 476.037C221.554 477.321 221.093 478.572 220.709 479.79C220.363 481.007 220.191 482.092 220.191 483.044C220.191 484.24 220.421 485.048 220.882 485.469C221.343 485.889 222.169 486.1 223.36 486.1C223.859 486.1 224.473 485.978 225.203 485.734C225.971 485.469 226.893 484.971 227.969 484.24C229.044 483.487 230.312 482.424 231.771 481.052C233.269 479.657 234.998 477.83 236.957 475.572L237.533 474.874L239.895 475.904L239.319 476.601C237.015 479.258 234.96 481.439 233.154 483.144C231.349 484.849 229.678 486.199 228.142 487.196C226.644 488.192 225.222 488.889 223.878 489.288C222.534 489.664 221.189 489.853 219.845 489.853C217.579 489.853 215.735 489.354 214.314 488.358C212.893 487.362 212.182 485.823 212.182 483.742C212.182 482.613 212.451 481.439 212.989 480.221C213.526 479.004 214.199 477.797 215.005 476.601C215.812 475.384 216.714 474.188 217.713 473.015C218.712 471.841 219.653 470.734 220.536 469.694C221.458 468.631 222.284 467.646 223.014 466.738C223.744 465.83 224.262 465.033 224.569 464.347L224.224 464.147C223.609 464.147 222.783 464.336 221.746 464.712C220.709 465.088 219.538 465.52 218.232 466.007C216.964 466.472 215.601 466.915 214.141 467.336C212.681 467.756 211.203 468.011 209.705 468.099C209.628 468.409 209.455 468.863 209.186 469.461C208.956 470.059 208.629 470.723 208.207 471.454C207.784 472.184 207.304 472.937 206.766 473.712C206.228 474.487 205.671 475.218 205.095 475.904L204.519 476.601L202.157 475.572ZM204.98 462.254C204.634 462.254 204.346 462.321 204.116 462.454C203.885 462.586 203.77 462.741 203.77 462.919C203.77 463.184 203.885 463.417 204.116 463.616C204.346 463.793 204.634 463.948 204.98 464.081C205.326 464.192 205.671 464.28 206.017 464.347C206.401 464.391 206.728 464.413 206.997 464.413C206.997 463.793 206.824 463.284 206.478 462.885C206.132 462.465 205.633 462.254 204.98 462.254Z" fill="#FAFBFF"/>
<path d="M240.471 475.24L239.895 475.904L239.319 476.601L236.957 475.572L237.533 474.874C238.493 473.745 239.281 472.616 239.895 471.487C240.548 470.336 241.067 469.262 241.451 468.266C241.873 467.269 242.219 466.395 242.488 465.642C242.757 464.889 243.026 464.347 243.295 464.015C243.525 463.749 243.852 463.538 244.274 463.384C244.735 463.206 245.196 463.062 245.657 462.952C246.156 462.841 246.617 462.764 247.04 462.719C247.501 462.675 247.827 462.653 248.019 462.653C248.864 462.653 249.421 462.753 249.69 462.952C249.997 463.151 250.151 463.505 250.151 464.015C250.151 464.258 250.055 464.867 249.863 465.841C249.709 466.793 249.517 468 249.287 469.461C249.095 470.9 248.903 472.528 248.711 474.343C248.557 476.136 248.48 477.996 248.48 479.923C248.48 481.317 248.595 482.424 248.826 483.244C249.056 484.041 249.344 484.638 249.69 485.037C250.074 485.436 250.477 485.69 250.9 485.801C251.361 485.912 251.822 485.967 252.283 485.967C252.897 485.967 253.589 485.812 254.357 485.502C255.125 485.192 256.028 484.65 257.065 483.875C258.102 483.078 259.293 482.015 260.637 480.686C261.981 479.336 263.556 477.631 265.362 475.572L265.995 474.874L268.358 475.904L267.724 476.601C266.264 478.24 264.805 479.856 263.345 481.45C261.924 483.044 260.464 484.461 258.966 485.701C257.507 486.941 256.028 487.948 254.53 488.723C253.032 489.476 251.534 489.853 250.036 489.853C248.461 489.853 247.097 489.675 245.945 489.321C244.831 488.945 243.89 488.336 243.122 487.495C242.392 486.653 241.835 485.546 241.451 484.173C241.105 482.779 240.932 481.063 240.932 479.026C240.932 478.45 240.932 477.852 240.932 477.232C240.932 476.59 240.971 475.926 241.048 475.24H240.471ZM252.283 455.845C252.283 456.62 251.822 457.273 250.9 457.804C250.017 458.313 248.903 458.568 247.558 458.568C246.252 458.568 245.138 458.313 244.217 457.804C243.295 457.273 242.834 456.62 242.834 455.845C242.834 455.092 243.295 454.45 244.217 453.918C245.138 453.387 246.252 453.121 247.558 453.121C248.903 453.121 250.017 453.387 250.9 453.918C251.822 454.45 252.283 455.092 252.283 455.845Z" fill="#FAFBFF"/>
<path d="M288.178 464.944C287.102 464.944 285.892 465.221 284.548 465.775C283.242 466.328 281.917 467.048 280.572 467.933C279.228 468.797 277.922 469.771 276.654 470.856C275.425 471.941 274.35 473.015 273.428 474.077C273.313 476.026 273.197 478.151 273.082 480.454C273.005 482.756 272.967 485.214 272.967 487.827C272.967 488.159 272.698 488.458 272.16 488.723C271.661 488.967 271.066 489.177 270.374 489.354C269.683 489.509 268.972 489.631 268.242 489.72C267.513 489.808 266.917 489.853 266.456 489.853C265.88 489.853 265.342 489.753 264.843 489.554C264.344 489.354 264.094 488.912 264.094 488.225C264.094 487.893 264.152 487.484 264.267 486.996C264.382 486.487 264.536 485.945 264.728 485.369C264.881 484.793 265.074 484.207 265.304 483.609C265.496 482.989 265.688 482.413 265.88 481.882V465.642C265.88 465.199 265.899 464.856 265.938 464.612C265.938 464.347 265.995 464.147 266.111 464.015C266.341 463.705 266.744 463.461 267.321 463.284C267.897 463.107 268.511 462.974 269.164 462.885C269.817 462.775 270.451 462.708 271.066 462.686C271.68 462.664 272.16 462.653 272.506 462.653C273.159 462.653 273.601 462.753 273.831 462.952C274.1 463.151 274.234 463.505 274.234 464.015C274.234 463.948 274.138 464.491 273.946 465.642C273.793 466.793 273.658 468.443 273.543 470.59C274.695 469.55 275.944 468.553 277.288 467.601C278.632 466.649 280.034 465.808 281.494 465.077C282.954 464.347 284.452 463.76 285.988 463.317C287.563 462.874 289.157 462.653 290.77 462.653C293.651 462.653 295.764 463.184 297.108 464.247C298.452 465.288 299.125 466.705 299.125 468.498C299.125 469.627 298.99 470.889 298.721 472.284C298.491 473.657 298.203 475.063 297.857 476.502C297.55 477.919 297.262 479.314 296.993 480.686C296.762 482.037 296.647 483.277 296.647 484.406C296.647 485.867 297.434 486.598 299.009 486.598C299.509 486.598 300.085 486.454 300.738 486.166C301.429 485.856 302.274 485.292 303.273 484.472C304.31 483.653 305.539 482.535 306.96 481.118C308.382 479.679 310.072 477.83 312.031 475.572L312.607 474.874L314.969 475.904L314.393 476.601C312.088 479.258 310.033 481.439 308.228 483.144C306.461 484.849 304.848 486.199 303.388 487.196C301.929 488.192 300.565 488.889 299.297 489.288C298.03 489.664 296.762 489.853 295.495 489.853C294.688 489.853 293.882 489.786 293.075 489.653C292.268 489.52 291.558 489.288 290.943 488.956C290.329 488.624 289.829 488.181 289.445 487.627C289.061 487.052 288.869 486.321 288.869 485.436C288.869 484.107 289.023 482.613 289.33 480.952C289.637 479.292 289.983 477.631 290.367 475.97C290.751 474.31 291.097 472.749 291.404 471.288C291.711 469.804 291.865 468.598 291.865 467.668C291.865 466.849 291.558 466.195 290.943 465.708C290.329 465.199 289.407 464.944 288.178 464.944Z" fill="#FAFBFF"/>
<path d="M328.739 502.439C328.739 501.465 329.046 500.48 329.661 499.484C330.314 498.487 331.197 497.469 332.311 496.428C333.425 495.388 334.712 494.303 336.172 493.174C337.67 492.067 339.283 490.915 341.011 489.72V483.443C340.09 484.483 339.052 485.402 337.9 486.199C336.748 486.996 335.519 487.672 334.213 488.225C332.945 488.757 331.62 489.166 330.237 489.454C328.893 489.72 327.568 489.853 326.262 489.853C324.456 489.853 322.709 489.598 321.019 489.089C319.367 488.579 317.888 487.816 316.582 486.797C315.276 485.757 314.239 484.45 313.471 482.878C312.703 481.306 312.319 479.458 312.319 477.332C312.319 475.539 312.684 473.767 313.413 472.018C314.143 470.269 315.238 468.708 316.697 467.336C318.157 465.941 319.962 464.812 322.113 463.948C324.264 463.085 326.78 462.653 329.661 462.653C331.927 462.653 334.04 462.919 335.999 463.45C337.996 463.981 339.667 464.756 341.011 465.775V465.376C341.011 464.955 341.223 464.579 341.645 464.247C342.106 463.893 342.663 463.605 343.316 463.384C344.007 463.14 344.718 462.963 345.448 462.852C346.216 462.719 346.888 462.653 347.464 462.653C348.117 462.653 348.578 462.708 348.847 462.819C349.116 462.907 349.25 463.074 349.25 463.317C349.25 463.671 349.174 464.468 349.02 465.708C348.866 466.948 348.79 468.764 348.79 471.155V485.568C349.75 484.882 350.768 484.118 351.843 483.277C352.919 482.435 353.994 481.561 355.07 480.653C356.145 479.723 357.182 478.771 358.181 477.797C359.218 476.823 360.178 475.849 361.062 474.874L361.638 474.21L364 475.24L363.424 475.904C362.502 476.967 361.427 478.074 360.198 479.225C359.007 480.354 357.739 481.472 356.395 482.579C355.089 483.664 353.764 484.716 352.419 485.734C351.113 486.731 349.903 487.627 348.79 488.424V495.631C348.79 497.668 348.463 499.395 347.81 500.812C347.195 502.251 346.331 503.414 345.217 504.299C344.142 505.207 342.836 505.86 341.299 506.259C339.801 506.657 338.169 506.856 336.402 506.856C334.213 506.856 332.388 506.458 330.929 505.661C329.469 504.886 328.739 503.812 328.739 502.439ZM329.776 486.465C330.967 486.465 332.139 486.266 333.291 485.867C334.482 485.469 335.576 484.959 336.575 484.34C337.574 483.72 338.457 483.044 339.225 482.314C340.032 481.561 340.627 480.83 341.011 480.122V470.756C341.011 469.76 340.742 468.863 340.205 468.066C339.667 467.247 338.956 466.561 338.073 466.007C337.19 465.432 336.172 464.989 335.019 464.679C333.905 464.369 332.753 464.214 331.562 464.214C329.719 464.214 328.105 464.535 326.723 465.177C325.34 465.797 324.188 466.627 323.266 467.668C322.344 468.686 321.652 469.86 321.191 471.188C320.769 472.516 320.558 473.867 320.558 475.24C320.558 476.945 320.731 478.483 321.076 479.856C321.46 481.229 322.036 482.413 322.805 483.41C323.573 484.384 324.533 485.137 325.686 485.668C326.838 486.199 328.201 486.465 329.776 486.465ZM335.768 504.831C336.383 504.831 336.997 504.753 337.612 504.598C338.265 504.465 338.841 504.144 339.341 503.635C339.84 503.126 340.243 502.373 340.55 501.377C340.858 500.38 341.011 499.03 341.011 497.325V492.377C338.361 494.214 336.191 495.952 334.501 497.591C332.849 499.251 332.023 500.801 332.023 502.24C332.023 502.927 332.35 503.524 333.003 504.034C333.656 504.565 334.578 504.831 335.768 504.831Z" fill="#FAFBFF"/>
<path d="M29.6858 416.203C27.3839 415.813 24.9718 415.689 22.5871 415.837C20.2024 415.985 17.8919 416.402 15.7876 417.065C13.6832 417.728 11.8261 418.624 10.3224 419.701C8.81872 420.778 7.6978 422.016 7.02369 423.343C6.34957 424.67 6.13546 426.061 6.39356 427.436C6.65167 428.811 7.37694 430.144 8.52797 431.357C9.67901 432.571 11.2333 433.643 13.102 434.51C14.9707 435.378 17.1173 436.025 19.4192 436.415L24.5525 426.309L29.6858 416.203Z" fill="#FFC700"/>
<path d="M30.1875 416.283C28.5248 416.002 26.7455 415.986 24.9511 416.234C23.1567 416.482 21.3824 416.991 19.7295 417.73C18.0765 418.47 16.5773 419.426 15.3175 420.545C14.0577 421.663 13.0619 422.922 12.3869 424.249C11.712 425.576 11.3712 426.945 11.3839 428.279C11.3966 429.612 11.7627 430.884 12.4611 432.021C13.1595 433.158 14.1767 434.138 15.4545 434.905C16.7323 435.673 18.2458 436.212 19.9085 436.493L25.048 426.388L30.1875 416.283Z" fill="#260868"/>
<path d="M55.823 413.158C54.6201 411.962 53.0202 410.914 51.1146 410.074C49.2089 409.234 47.0349 408.618 44.7166 408.262C42.3983 407.906 39.9811 407.817 37.6031 408C35.2251 408.183 32.9328 408.634 30.857 409.327C28.7813 410.02 26.9628 410.943 25.5054 412.041C24.048 413.139 22.9802 414.393 22.363 415.729C21.7458 417.065 21.5912 418.459 21.9082 419.829C22.2251 421.2 23.0074 422.521 24.2102 423.718L40.0166 418.438L55.823 413.158Z" fill="#FFC700"/>
<path d="M56.078 413.411C55.2092 412.547 53.9402 411.828 52.3432 411.295C50.7463 410.762 48.8527 410.426 46.7707 410.305C44.6887 410.184 42.4589 410.281 40.2087 410.591C37.9586 410.901 35.7321 411.418 33.6564 412.111C31.5806 412.804 29.6963 413.661 28.1111 414.632C26.5258 415.603 25.2706 416.67 24.4171 417.771C23.5636 418.873 23.1286 419.987 23.1369 421.051C23.1451 422.114 23.5965 423.107 24.4652 423.971L40.2716 418.691L56.078 413.411Z" fill="#260868"/>
<path d="M78.0498 427.88C77.1373 426.601 75.5306 425.501 73.3214 424.643C71.1121 423.786 68.3436 423.187 65.1739 422.881C62.0042 422.575 58.4954 422.568 54.8479 422.861C51.2003 423.153 47.4854 423.739 43.9152 424.585C40.3451 425.432 36.9896 426.522 34.0404 427.793C31.0912 429.064 28.606 430.492 26.7268 431.995C24.8475 433.498 23.611 435.046 23.0877 436.551C22.5645 438.057 22.7649 439.49 23.6773 440.769L50.8636 434.324L78.0498 427.88Z" fill="#FFC700"/>
<path d="M78.2421 428.15C77.5831 427.227 76.2274 426.479 74.2523 425.949C72.2773 425.42 69.7215 425.119 66.7311 425.064C63.7406 425.01 60.374 425.202 56.8234 425.63C53.2728 426.059 49.6078 426.715 46.0377 427.561C42.4675 428.407 39.0621 429.427 36.0159 430.563C32.9697 431.698 30.3424 432.927 28.2839 434.178C26.2254 435.43 24.7761 436.68 24.0187 437.857C23.2613 439.034 23.2107 440.116 23.8697 441.039L51.0559 434.595L78.2421 428.15Z" fill="#260868"/>
</g>
<defs>
<clipPath id="clip0">
<rect width="375" height="812" fill="white"/>
</clipPath>
</defs>
</svg>
